inDegrees=yes
name=ik_S57_A13_T01
DataType=double
version=3
OpenSimVersion=4.3-2021-08-27-4bc7ad9
endheader
time	pelvis_tilt	pelvis_list	pelvis_rotation	pelvis_tx	pelvis_ty	pelvis_tz	hip_flexion_r	hip_adduction_r	hip_rotation_r	knee_angle_r	knee_angle_r_beta	ankle_angle_r	subtalar_angle_r	mtp_angle_r	hip_flexion_l	hip_adduction_l	hip_rotation_l	knee_angle_l	knee_angle_l_beta	ankle_angle_l	subtalar_angle_l	mtp_angle_l	lumbar_extension	lumbar_bending	lumbar_rotation	arm_flex_r	arm_add_r	arm_rot_r	elbow_flex_r	pro_sup_r	wrist_flex_r	wrist_dev_r	arm_flex_l	arm_add_l	arm_rot_l	elbow_flex_l	pro_sup_l	wrist_flex_l	wrist_dev_l
0	0	0	0	0	0.9399999999999999	0	0	0	0	0	0	0	0	0	0	0	0	0	0	0	0	0	0	0	0	0	0	0	0	89.99999999963507	0	0	0	0	0	0	89.99999999869995	0	0
0.02	1.823304540667316	1.051951482654124	23.90205777459895	0	0.9399999999999999	0	4.652757415589771	-2.132416544916246	-1.557784994532526	6.820066729161923	0.1190326196295959	0	0	0	4.652757415589771	-2.132416544916246	-1.557784994532526	6.820066729161923	0.1190326196295959	0	0	0	1.397745541235	2.157081473932001	4.410136181832574	12.2178147999206	-1.529104774105675	12.02671702834684	13.90130550995879	160.7568297835597	0	0	7.196589475648036	-8.948074924411282	22.36942212382023	11.60497610281064	158.9711730944916	0	0
0.04	1.825582698012586	1.053427300843375	23.91716441655391	0	0.9399999999999999	0	4.745661705485776	-2.169988673032023	-1.591116577243366	6.888625775091302	0.1202292007130896	0	0	0	4.745661705485776	-2.169988673032023	-1.591116577243366	6.888625775091302	0.1202292007130896	0	0	0	1.40160669190613	2.154171381893671	4.40469878934772	12.20683428071817	-1.534955131482825	12.04684950625726	13.91847158958198	160.7546762263729	0	0	7.189056820416281	-8.94460988923759	22.38905340050428	11.59932722133213	158.9656154119791	0	0
0.06	1.825856810702274	1.052348780107243	23.92571914604684	0	0.9399999999999999	0	4.822067169555616	-2.203292103487167	-1.618391883797719	6.954034160476633	0.121370792396477	0	0	0	4.822067169555616	-2.203292103487167	-1.618391883797719	6.954034160476633	0.121370792396477	0	0	0	1.402363026481552	2.150608978729135	4.399109796817616	12.19665306152968	-1.549076834980967	12.0629136000581	13.93312863384721	160.7231115798864	0	0	7.187147231914315	-8.938346730136651	22.38692682795974	11.60560792429365	158.9520191312774	0	0
0.08	1.82664132169314	1.043201582299583	23.95800086823208	0	0.9399999999999999	0	4.901652017137248	-2.235235768186268	-1.646887300316543	7.012224307850933	0.1223864020603792	0	0	0	4.901652017137248	-2.235235768186268	-1.646887300316543	7.012224307850933	0.1223864020603792	0	0	0	1.400191649922727	2.139433318883378	4.40692866704569	12.20177491535729	-1.540489862400532	12.01808615376747	13.92789634635203	160.7198791430746	0	0	7.189741476827417	-8.938233285842143	22.41669574316525	11.59269124898606	158.9687358490557	0	0
0.1	1.820609332112401	1.039669924474782	23.96454532493021	0	0.9399999999999999	0	5.066705017278252	-2.30423456811629	-1.704649045493094	7.157518647013684	0.1249222666632786	0	0	0	5.066705017278252	-2.30423456811629	-1.704649045493094	7.157518647013684	0.1249222666632786	0	0	0	1.394757085462495	2.133566283097864	4.400860507169663	12.1952951662881	-1.520933104185701	12.00142405872371	13.95019719968936	160.6834058223817	0	0	7.202613230645039	-8.931614167835876	22.40877871807934	11.60289023414645	158.9512004893953	0	0
0.12	1.819738583681199	1.03774022207161	23.97922266689904	0	0.9399999999999999	0	5.144322401351665	-2.33540878763843	-1.732279468260983	7.21581385914685	0.1259397100531509	0	0	0	5.144322401351665	-2.33540878763843	-1.732279468260983	7.21581385914685	0.1259397100531509	0	0	0	1.394147140996769	2.129428633989783	4.398282119322771	12.1908997830143	-1.523364238054662	11.99472515817016	13.94115921992579	160.6827075303707	0	0	7.209437115891918	-8.932883402543224	22.42048707096004	11.60047140395076	158.9582842822702	0	0
0.14	1.819155815831845	1.031033664559109	23.99347050891639	0	0.9399999999999999	0	5.232613412307914	-2.373811815958908	-1.763365709023127	7.296183935682671	0.1273424325087808	0	0	0	5.232613412307914	-2.373811815958908	-1.763365709023127	7.296183935682671	0.1273424325087808	0	0	0	1.391907894517989	2.120750288711777	4.396917040830189	12.18950929181962	-1.50594243376614	11.98182605614207	13.94227817251075	160.6524844921223	0	0	7.218128051014609	-8.939097164723142	22.43609979310876	11.60913188291102	158.9513277535373	0	0
0.16	1.809551138949351	1.024810895302456	23.99550618972802	0	0.9399999999999999	0	5.306631325197523	-2.404071316214787	-1.789600748982958	7.354732100211323	0.1283642907508051	0	0	0	5.306631325197523	-2.404071316214787	-1.789600748982958	7.354732100211323	0.1283642907508051	0	0	0	1.381438313571806	2.116588711785957	4.39705016567449	12.22195512057231	-1.508395157319688	11.97804086288326	13.90838489614321	160.6702222674459	0	0	7.247337152381442	-8.929989766788513	22.44239520341431	11.58138125516112	158.9649118154228	0	0
0.18	1.806317125131498	1.024097096441946	23.99121601508301	0	0.9399999999999999	0	5.401409492663979	-2.43974609178213	-1.82293736903613	7.422469311455041	0.1295465281131269	0	0	0	5.401409492663979	-2.43974609178213	-1.82293736903613	7.422469311455041	0.1295465281131269	0	0	0	1.379319272436527	2.113947405876722	4.398751709221139	12.24410374159235	-1.503936682696623	11.98042452547817	13.88967413890891	160.7006562332489	0	0	7.245789480760994	-8.942748370521587	22.44426247689314	11.5565507378319	159.0019784561967	0	0
0.2	1.801445550682871	1.0181186226148	23.98749144427064	0	0.9399999999999999	0	5.498629087843427	-2.480109287971674	-1.857085209658416	7.505043446574486	0.1309877186479479	0	0	0	5.498629087843427	-2.480109287971674	-1.857085209658416	7.505043446574486	0.1309877186479479	0	0	0	1.373590305993288	2.107123663750391	4.392033998892299	12.24011383572861	-1.487031097044846	11.99511014057899	13.90342630188492	160.6808223823228	0	0	7.259243871181386	-8.916359915396372	22.44446032084041	11.57982625724678	158.9908556033973	0	0
0.22	1.794325643263952	1.016715941224629	23.97525782747343	0	0.9399999999999999	0	5.609077250432706	-2.527301691831597	-1.895763019580792	7.605288944367747	0.1327373326447411	0	0	0	5.609077250432706	-2.527301691831597	-1.895763019580792	7.605288944367747	0.1327373326447411	0	0	0	1.367825329918984	2.104884148164481	4.376053275332615	12.22795067430039	-1.516790341481293	12.07007066761571	13.93133269830433	160.6191654582294	0	0	7.242657286521296	-8.907021934619827	22.44728779220256	11.59491268909742	158.9559900989824	0	0
0.24	1.793830443749517	1.018592418557825	23.96218069813858	0	0.9399999999999999	0	5.688186360546218	-2.558709880518689	-1.923401599525632	7.668737508523216	0.1338447189949168	0	0	0	5.688186360546218	-2.558709880518689	-1.923401599525632	7.668737508523216	0.1338447189949168	0	0	0	1.369100953463854	2.103899361175932	4.374828782467622	12.22724910164958	-1.51233147830157	12.08819504584994	13.93013122717564	160.6146477167262	0	0	7.242085006525894	-8.903110962169537	22.43613712951532	11.59303180774825	158.9571532336832	0	0
0.26	1.792934296393181	1.016151443795509	23.95610940227945	0	0.9399999999999999	0	5.772374783808294	-2.59521292387653	-1.952879843443626	7.746418526113374	0.1352005085181647	0	0	0	5.772374783808294	-2.59521292387653	-1.952879843443626	7.746418526113374	0.1352005085181647	0	0	0	1.368356090399065	2.099140929563239	4.36430123045027	12.2179190561665	-1.545657963741359	12.10407239278439	13.94136686992417	160.5949103711066	0	0	7.248940646401627	-8.897324669358451	22.40850487284915	11.6068049488235	158.9320703568094	0	0
0.28	1.803069053739079	1.031983686882121	23.99855901475504	0	0.9399999999999999	0	6.468774952804013	-2.891625015476508	-2.191864561716173	8.439820830994011	0.1473026617792494	0	0	0	6.468774952804013	-2.891625015476508	-2.191864561716173	8.439820830994011	0.1473026617792494	0	0	0	1.389773931720148	2.088309172503876	4.295703129266113	12.14267892691324	-1.565624919988457	12.2016373474546	14.10167099808163	160.4164476347306	0	0	7.201308757073109	-8.906801387367199	22.3615439049499	11.7247355142017	158.8533940530077	0	0
0.3	1.806163831794551	1.030759467228075	24.03789014535672	0	0.9399999999999999	0	6.478076762751124	-2.892019262602184	-2.195379490977899	8.431216832550339	0.1471524936775708	0	0	0	6.478076762751124	-2.892019262602184	-2.195379490977899	8.431216832550339	0.1471524936775708	0	0	0	1.392402091504815	2.085182022442838	4.29674713692093	12.1638088011245	-1.564679901573657	12.14544238547118	13.94982638146197	160.5506583223157	0	0	7.225011305067806	-8.868275376598483	22.3117271619526	11.6078870880956	158.987238378939	0	0
0.32	1.810951806522341	1.03125196514609	24.0401742317415	0	0.9399999999999999	0	6.539872806934549	-2.917707735256815	-2.216893210539487	8.485423002595123	0.1480985698197482	0	0	0	6.539872806934549	-2.917707735256815	-2.216893210539487	8.485423002595123	0.1480985698197482	0	0	0	1.397882888727129	2.081273108109528	4.283921847465619	12.16634322722798	-1.569741246399876	12.1854870018545	13.9152821008175	160.5422713530398	0	0	7.227380249858411	-8.869089992620689	22.30936644347343	11.59540388992582	158.980181465878	0	0
0.34	1.790485820852615	1.044675826316095	24.04331767882246	0	0.9399999999999999	0	7.215128538099399	-3.212107668617112	-2.445415548133826	9.219324823611217	0.1609075729828612	0	0	0	7.215128538099399	-3.212107668617112	-2.445415548133826	9.219324823611217	0.1609075729828612	0	0	0	1.396429475577453	2.074979903161192	4.258948959370164	12.176386028049	-1.5756387726348	12.21798903112318	13.91081280864652	160.4822188386782	0	0	7.236593363221388	-8.838721388156609	22.26807889447828	11.61589061291902	158.9553918908851	0	0
0.36	1.792605687725665	1.046671918040081	24.03999483833845	0	0.9399999999999999	0	7.287994844789804	-3.240086273501391	-2.470223113864437	9.281489569752573	0.1619925524816943	0	0	0	7.287994844789804	-3.240086273501391	-2.470223113864437	9.281489569752573	0.1619925524816943	0	0	0	1.399983787529003	2.073564854271622	4.260436644731244	12.16677412374464	-1.581669287606569	12.1925429268286	13.92265010621126	160.5071884518154	0	0	7.240466841645998	-8.849585655932328	22.27635255153501	11.61789141597764	158.9712373615808	0	0
0.3800000000000001	1.798283720752199	1.061992937262977	24.02773898521607	0	0.9399999999999999	0	7.352660194849825	-3.263715978158928	-2.492149136741527	9.333165111707707	0.1628944608315639	0	0	0	7.352660194849825	-3.263715978158928	-2.492149136741527	9.333165111707707	0.1628944608315639	0	0	0	1.412232812163407	2.082931692392361	4.25664194341305	12.15687989984206	-1.600308909861311	12.19889184581577	13.91214262243771	160.5529049947326	0	0	7.211792002570918	-8.836242117377628	22.27717235423814	11.60453198037188	159.0034283618962	0	0
0.4000000000000001	1.800464963264145	1.061013855278438	24.016592329557	0	0.9399999999999999	0	7.426763136884272	-3.292720349104612	-2.517340082089471	9.398738618708993	0.1640389344308159	0	0	0	7.426763136884272	-3.292720349104612	-2.517340082089471	9.398738618708993	0.1640389344308159	0	0	0	1.414747972582758	2.078516466811196	4.250820689796019	12.14500154950287	-1.596679305177894	12.17317928655843	13.92020657994874	160.5491545692343	0	0	7.208527100887021	-8.839620062718682	22.27579313279692	11.624261395791	158.9886273209706	0	0
0.4200000000000001	1.805402858739703	1.062666529612098	24.01143478570021	0	0.9399999999999999	0	7.500382360028439	-3.320271569184332	-2.542208095592742	9.460960591898672	0.1651249127300634	0	0	0	7.500382360028439	-3.320271569184332	-2.542208095592742	9.460960591898672	0.1651249127300634	0	0	0	1.420697473247417	2.075686899128447	4.252468674025785	12.14119574548767	-1.593967300027936	12.17111912765763	13.90258416440644	160.5690190545397	0	0	7.211938971317317	-8.854556527246746	22.30124042670907	11.62364899514589	159.0104904433618	0	0
0.4400000000000001	1.806501157156149	1.063742596448497	24.00393315628135	0	0.9399999999999999	0	7.568440472302639	-3.347645328327619	-2.565273488881682	9.524711055205126	0.1662375682144328	0	0	0	7.568440472302639	-3.347645328327619	-2.565273488881682	9.524711055205126	0.1662375682144328	0	0	0	1.422878160222841	2.073901263192957	4.249137136543304	12.14092633652688	-1.596691232774183	12.18232766713154	13.91605440352353	160.5550813810611	0	0	7.20474545437516	-8.852851830402154	22.2940170318119	11.62766819864766	159.0168945673534	0	0
